<svg viewBox="0 0 32 32" xmlns="http://www.w3.org/2000/svg" aria-hidden="true" role="presentation" focusable="false" style="display: block; height: 24px; width: 24px; fill: currentcolor;"><path d="M19 1v2H4v14h1.27a7.518 7.518 0 0 1 3.752-4.646 4.5 4.5 0 1 1 6.956.002A7.513 7.513 0 0 1 19.73 17H28v-4.969h2V29c0 1.054-1 2-2 2H4c-1.054 0-2-1-2-2V3c0-1.054 1-2 2-2h15zM4 19v10h24V19H4zm8.5-12a2.5 2.5 0 0 0-1.153 4.719l.153.073v1.799A5.509 5.509 0 0 0 7.375 17h10.25a5.51 5.51 0 0 0-3.9-3.364l-.224-.046v-1.8A2.5 2.5 0 0 0 12.5 7zM27.995.999l2 .002c-.002 2.06-.472 3.342-1.766 5.422l-.752 1.183c-1.061 1.702-1.44 2.683-1.474 4.157L26 12h-2c0-2.16.515-3.466 1.954-5.729l.562-.88c1.061-1.701 1.44-2.682 1.476-4.155l.003-.237zm-5 0l2 .002c-.002 2.06-.472 3.342-1.766 5.422l-.752 1.183c-1.061 1.702-1.44 2.683-1.474 4.157L21 12h-2c0-2.16.515-3.466 1.954-5.729l.562-.88c1.061-1.701 1.44-2.682 1.476-4.155l.003-.237z"></path></svg>